<mxfile host="app.diagrams.net" modified="2024-04-12T04:59:07.423Z" agent="Mozilla/5.0 (X11; Linux x86_64) AppleWebKit/537.36 (KHTML, like Gecko) Chrome/123.0.0.0 Safari/537.36" version="24.2.3" etag="G2rMbgyRvfpXkPnjaRG6" type="github">
  <diagram name="Page-1" id="zr8cb-EiklYJhcTh8gs3">
    <mxGraphModel>
      <root>
        <mxCell id="0" />
        <mxCell id="1" parent="0" />
      </root>
    </mxGraphModel>
  </diagram>
</mxfile>
